<?xml version="1.0" encoding="utf-8"?>
<!-- Generator: Adobe Illustrator 22.0.1, SVG Export Plug-In . SVG Version: 6.00 Build 0)  -->
<svg version="1.1" id="svg2" xmlns="http://www.w3.org/2000/svg" xmlns:xlink="http://www.w3.org/1999/xlink" x="0px" y="0px"
	 viewBox="0 0 1137.9 535.7" style="enable-background:new 0 0 1137.9 535.7;" xml:space="preserve">
<style type="text/css">
	.st0{fill:#795548;}
	.st1{fill:#5D4037;}
	.st2{fill:#4DB6AC;}
	.st3{fill:#00796B;}
	.st4{fill:#81C784;}
	.st5{fill:#43A047;}
	.st6{fill:#FFEB3B;}
	.st7{fill:#F9A825;}
	.st8{fill:#42A5F5;}
	.st9{fill:#1976D2;}
	.st10{fill:#64B5F6;}
	.st11{fill:#90CAF9;}
	.st12{fill:#FFD54F;}
	.st13{fill:#FFB300;}
	.st14{fill:#F44336;}
	.st15{fill:#D32F2F;}
</style>
<g id="layer1" transform="translate(296.93982,20.586676)">
	<g id="g4790">
		<rect id="rect4440" x="-220.5" y="410.5" class="st0" width="954.4" height="29.7"/>
		<path id="path4442" class="st1" d="M-220.5,410.5v24.3l4.1,5.4h120.8l-22.2-29.7L-220.5,410.5L-220.5,410.5z M0.8,410.5l22.2,29.7
			h63.4l-22.2-29.7H0.8z M143.4,410.5l22.2,29.7h146.5l-22.2-29.7H143.4L143.4,410.5z M402.7,410.5l22.2,29.7h61.4l-22.2-29.7H402.7
			z M489.8,410.5l22.2,29.7h35.6l-22.2-29.7H489.8z M580.9,410.5l22.2,29.7H712l-22.2-29.7H580.9z"/>
		<rect id="rect4444" x="-72" y="74.2" class="st2" width="67" height="336.5"/>
		<path id="rect4446" class="st2" d="M-63.4,64.5h49.8c4.7,0,8.6,3.8,8.6,8.6v290.2c0,4.7-3.8,8.6-8.6,8.6h-49.8
			c-4.7,0-8.6-3.8-8.6-8.6V73.1C-72,68.3-68.2,64.5-63.4,64.5z"/>
		<path id="path4448" class="st3" d="M-72,97.4v27.2h67V97.4C-5,97.4-72,97.4-72,97.4z"/>
		<path id="rect4450" class="st3" d="M-38.5,149.1L-38.5,149.1c9.8,0,17.7,8.3,17.7,18.6v130.9c0,10.3-7.9,18.6-17.7,18.6l0,0
			c-9.8,0-17.7-8.3-17.7-18.6V167.7C-56.2,157.5-48.3,149.1-38.5,149.1z"/>
		<path id="path4452" class="st3" d="M-72,346.1v46.7h67v-46.7H-72z"/>
		<path id="rect4454" class="st2" d="M-38.5,158.9L-38.5,158.9c6.2,0,11.2,7.3,11.2,16.4V291c0,9.1-5,16.4-11.2,16.4h0
			c-6.2,0-11.2-7.3-11.2-16.4V175.3C-49.7,166.2-44.7,158.9-38.5,158.9z"/>
		<rect id="rect4456" x="-5.2" y="89.9" class="st4" width="67" height="320.9"/>
		<path id="rect4458" class="st4" d="M3,80.6h50.6c4.5,0,8.2,3.7,8.2,8.2v276.7c0,4.5-3.7,8.2-8.2,8.2H3c-4.5,0-8.2-3.7-8.2-8.2
			V88.8C-5.2,84.3-1.5,80.6,3,80.6z"/>
		<path id="path4460" class="st5" d="M-5.2,111.9v26h67v-26C61.8,111.9-5.2,111.9-5.2,111.9z"/>
		<path id="rect4462" class="st5" d="M28.3,171.2L28.3,171.2c9.8,0,17.7,7.9,17.7,17.7v124.8c0,9.8-7.9,17.7-17.7,17.7h0
			c-9.8,0-17.7-7.9-17.7-17.7V188.9C10.6,179.1,18.5,171.2,28.3,171.2z"/>
		<path id="path4464" class="st5" d="M-5.2,357v12.2h67V357C61.8,357-5.2,357-5.2,357z"/>
		<rect id="rect4466" x="60.4" y="57.4" class="st6" width="67" height="353.4"/>
		<path id="rect4468" class="st6" d="M69.5,47.2h48.9c5,0,9,4,9,9v304.7c0,5-4,9-9,9H69.5c-5,0-9-4-9-9V56.2
			C60.4,51.2,64.5,47.2,69.5,47.2z"/>
		<path id="path4470" class="st7" d="M60.4,68.1v44.8h67V68.1C127.4,68.1,60.4,68.1,60.4,68.1z"/>
		<path id="path4472" class="st7" d="M60.4,321.8v70.1h67v-70.1H60.4z"/>
		<path id="path4474" class="st5" d="M-5.2,382.8v27h65.7v-27C60.5,382.8-5.2,382.8-5.2,382.8z"/>
		<circle id="circle4476" class="st6" cx="92.6" cy="89.6" r="15.3"/>
		<path id="path4478" class="st7" d="M60.4,292.6v21h67v-21H60.4z"/>
		<rect id="rect4480" x="127.3" y="111.1" class="st8" width="44.7" height="299.6"/>
		<path id="rect4482" class="st8" d="M131.5,102.5h36.3c2.3,0,4.2,1.9,4.2,4.2V372c0,2.3-1.9,4.2-4.2,4.2h-36.3
			c-2.3,0-4.2-1.9-4.2-4.2V106.7C127.3,104.3,129.2,102.5,131.5,102.5z"/>
		<path id="path4484" class="st9" d="M127.3,120v13.1H172V120H127.3L127.3,120z"/>
		<path id="path4486" class="st9" d="M127.3,360.5v11.4H172v-11.4H127.3L127.3,360.5z"/>
		<path id="path4488" class="st9" d="M127.3,384.7v26.2h44.6v-26.2H127.3L127.3,384.7z"/>
		<path id="path4490" class="st10" d="M152.7,255.2L127.3,292v59l39.9-76.6L152.7,255.2z"/>
		<path id="path4492" class="st11" d="M167.5,193.2l-40.2,58.3v24.8l13,15.9l31.7-55v-28.3L167.5,193.2L167.5,193.2z"/>
		<path id="path4494" class="st10" d="M172,158.4l-33.6,48.7l22.3,27.2l11.3-19.6V158.4z"/>
		<path id="path4496" class="st11" d="M132.1,140.2l-4.8,8.3v58.2l27.1-39.3L132.1,140.2L132.1,140.2z"/>
		<rect id="rect4498" x="171.9" y="89" class="st8" width="57" height="321.7"/>
		<path id="rect4500" class="st12" d="M176.4,79.7h48c2.5,0,4.5,2,4.5,4.5v284.9c0,2.5-2,4.5-4.5,4.5h-48c-2.5,0-4.5-2-4.5-4.5V84.2
			C171.9,81.7,173.9,79.7,176.4,79.7z"/>
		<path id="path4502" class="st13" d="M171.9,87.1V148h57V87.1L171.9,87.1L171.9,87.1z"/>
		<path id="path4504" class="st13" d="M171.9,317.2v12.2h57v-12.2H171.9L171.9,317.2z"/>
		<path id="path4506" class="st13" d="M171.9,338.2v72.7h56.8v-72.7H171.9L171.9,338.2z"/>
		
			<rect id="rect4508" x="182" y="123.2" transform="matrix(0.7071 -0.7071 0.7071 0.7071 -40.9375 182.0939)" class="st13" width="34.6" height="34.6"/>
		
			<rect id="rect4510" x="188.7" y="178.1" transform="matrix(0.7071 -0.7071 0.7071 0.7071 -75.5268 197.304)" class="st13" width="23.4" height="23.4"/>
		
			<rect id="rect4512" x="188.7" y="211.5" transform="matrix(0.7071 -0.7071 0.7071 0.7071 -99.1591 207.0928)" class="st13" width="23.4" height="23.4"/>
		
			<rect id="rect4514" x="188.7" y="244.9" transform="matrix(0.7071 -0.7071 0.7071 0.7071 -122.7914 216.8816)" class="st13" width="23.4" height="23.4"/>
		
			<rect id="rect4516" x="188.7" y="277.9" transform="matrix(0.7071 -0.7071 0.7071 0.7071 -146.0954 226.5345)" class="st13" width="23.4" height="23.4"/>
		<rect id="rect4518" x="518.9" y="74.2" class="st2" width="67" height="336.5"/>
		<path id="rect4520" class="st2" d="M577.3,64.5h-49.8c-4.7,0-8.6,3.8-8.6,8.6v290.2c0,4.7,3.8,8.6,8.6,8.6h49.8
			c4.7,0,8.6-3.8,8.6-8.6V73.1C585.9,68.3,582,64.5,577.3,64.5z"/>
		<path id="path4522" class="st3" d="M585.9,97.4v27.2h-67V97.4L585.9,97.4L585.9,97.4z"/>
		<path id="rect4524" class="st3" d="M552.4,149.1L552.4,149.1c-9.8,0-17.7,8.3-17.7,18.6v130.9c0,10.3,7.9,18.6,17.7,18.6l0,0
			c9.8,0,17.7-8.3,17.7-18.6V167.7C570.1,157.5,562.2,149.1,552.4,149.1z"/>
		<path id="path4526" class="st3" d="M585.9,346.1v46.7h-67v-46.7H585.9L585.9,346.1z"/>
		<path id="rect4528" class="st2" d="M552.4,158.9L552.4,158.9c-6.2,0-11.2,7.3-11.2,16.4V291c0,9.1,5,16.4,11.2,16.4l0,0
			c6.2,0,11.2-7.3,11.2-16.4V175.3C563.6,166.2,558.6,158.9,552.4,158.9z"/>
		<rect id="rect4530" x="452" y="89.9" class="st4" width="67" height="320.9"/>
		<path id="rect4532" class="st4" d="M510.8,80.6h-50.6c-4.5,0-8.2,3.7-8.2,8.2v276.7c0,4.5,3.7,8.2,8.2,8.2h50.6
			c4.5,0,8.2-3.7,8.2-8.2V88.8C519,84.3,515.4,80.6,510.8,80.6z"/>
		<path id="path4534" class="st5" d="M519,111.9v26h-67v-26H519z"/>
		<path id="rect4536" class="st5" d="M485.6,171.2L485.6,171.2c-9.8,0-17.7,7.9-17.7,17.7v124.8c0,9.8,7.9,17.7,17.7,17.7l0,0
			c9.8,0,17.7-7.9,17.7-17.7V188.9C503.3,179.1,495.3,171.2,485.6,171.2z"/>
		<path id="path4538" class="st5" d="M519,357v12.2h-67V357H519z"/>
		<rect id="rect4540" x="386.4" y="57.4" class="st6" width="67" height="353.4"/>
		<path id="rect4542" class="st6" d="M444.4,47.2h-48.9c-5,0-9,4-9,9v304.7c0,5,4,9,9,9h48.9c5,0,9-4,9-9V56.2
			C453.4,51.2,449.4,47.2,444.4,47.2z"/>
		<path id="path4544" class="st7" d="M453.4,68.1v44.8h-67V68.1C386.4,68.1,453.4,68.1,453.4,68.1z"/>
		<path id="path4546" class="st7" d="M453.4,321.8v70.1h-67v-70.1H453.4z"/>
		<path id="path4548" class="st5" d="M519,382.8v27h-65.7v-27H519z"/>
		<circle id="circle4550" class="st6" cx="421.3" cy="89.6" r="15.3"/>
		<path id="path4552" class="st7" d="M453.4,292.6v21h-67v-21H453.4z"/>
		<rect id="rect4554" x="341.9" y="111.1" class="st8" width="44.7" height="299.6"/>
		<path id="rect4556" class="st8" d="M382.4,102.5h-36.3c-2.3,0-4.2,1.9-4.2,4.2V372c0,2.3,1.9,4.2,4.2,4.2h36.3
			c2.3,0,4.2-1.9,4.2-4.2V106.7C386.6,104.3,384.7,102.5,382.4,102.5z"/>
		<path id="path4558" class="st9" d="M386.6,120v13.1h-44.7V120H386.6z"/>
		<path id="path4560" class="st9" d="M386.6,360.5v11.4h-44.7v-11.4H386.6z"/>
		<path id="path4562" class="st9" d="M386.6,384.7v26.2H342v-26.2H386.6z"/>
		<path id="path4564" class="st10" d="M361.2,255.2l25.4,36.8v59l-39.9-76.6L361.2,255.2z"/>
		<path id="path4566" class="st11" d="M346.4,193.2l40.2,58.3v24.8l-13,15.9l-31.7-55v-28.3L346.4,193.2L346.4,193.2z"/>
		<path id="path4568" class="st10" d="M341.9,158.4l33.6,48.7l-22.3,27.2l-11.3-19.6L341.9,158.4L341.9,158.4z"/>
		<path id="path4570" class="st11" d="M381.8,140.2l4.8,8.3v58.2l-27.1-39.3L381.8,140.2L381.8,140.2z"/>
		<rect id="rect4572" x="285" y="89" class="st8" width="57" height="321.7"/>
		<path id="rect4574" class="st12" d="M337.5,79.7h-48c-2.5,0-4.5,2-4.5,4.5v284.9c0,2.5,2,4.5,4.5,4.5h48c2.5,0,4.5-2,4.5-4.5V84.2
			C342,81.7,339.9,79.7,337.5,79.7z"/>
		<path id="path4576" class="st13" d="M342,87.1V148h-57V87.1C285,87.1,342,87.1,342,87.1z"/>
		<path id="path4578" class="st13" d="M342,317.2v12.2h-57v-12.2H342z"/>
		<path id="path4580" class="st13" d="M342,338.2v72.7h-56.8v-72.7H342z"/>
		
			<rect id="rect4582" x="297.2" y="123.2" transform="matrix(0.7071 -0.7071 0.7071 0.7071 -7.1958 263.5537)" class="st13" width="34.6" height="34.6"/>
		
			<rect id="rect4584" x="301.7" y="178.1" transform="matrix(0.7071 -0.7071 0.7071 0.7071 -42.4093 277.2569)" class="st13" width="23.4" height="23.4"/>
		
			<rect id="rect4586" x="301.7" y="211.5" transform="matrix(0.7071 -0.7071 0.7071 0.7071 -66.0415 287.0457)" class="st13" width="23.4" height="23.4"/>
		
			<rect id="rect4588" x="301.7" y="244.9" transform="matrix(0.7071 -0.7071 0.7071 0.7071 -89.6738 296.8345)" class="st13" width="23.4" height="23.4"/>
		
			<rect id="rect4590" x="301.7" y="277.9" transform="matrix(0.7071 -0.7071 0.7071 0.7071 -112.9779 306.4873)" class="st13" width="23.4" height="23.4"/>
		<rect id="rect4592" x="228.1" y="89" class="st8" width="57" height="321.7"/>
		<path id="rect4594" class="st14" d="M232.6,79.7h48c2.5,0,4.5,2,4.5,4.5v284.9c0,2.5-2,4.5-4.5,4.5h-48c-2.5,0-4.5-2-4.5-4.5V84.2
			C228.1,81.7,230.1,79.7,232.6,79.7z"/>
		<path id="path4596" class="st15" d="M228.1,94.6V148h57V94.6H228.1L228.1,94.6z"/>
		<path id="path4598" class="st15" d="M228.1,338.2v72.7H285v-72.7H228.1L228.1,338.2z"/>
		
			<rect id="rect4600" x="239.6" y="329.6" transform="matrix(0.7071 -0.7071 0.7071 0.7071 -170.0898 283.2446)" class="st15" width="34.6" height="34.6"/>
		
			<rect id="rect4602" x="244.9" y="191.7" transform="matrix(0.7071 -0.7071 0.7071 0.7071 -68.691 241.0389)" class="st15" width="23.4" height="23.4"/>
		
			<rect id="rect4604" x="244.9" y="225.1" transform="matrix(0.7071 -0.7071 0.7071 0.7071 -92.3233 250.8278)" class="st15" width="23.4" height="23.4"/>
		
			<rect id="rect4606" x="244.9" y="258.1" transform="matrix(0.7071 -0.7071 0.7071 0.7071 -115.6274 260.4806)" class="st15" width="23.4" height="23.4"/>
		
			<rect id="rect4608" x="244.9" y="346.3" transform="matrix(0.7071 -0.7071 0.7071 0.7071 -177.9988 286.3157)" class="st14" width="23.4" height="23.4"/>
		
			<rect id="rect4610" x="239.6" y="122.7" transform="matrix(0.7071 -0.7071 0.7071 0.7071 -23.7696 222.6367)" class="st15" width="34.6" height="34.6"/>
		
			<rect id="rect4612" x="244.9" y="117.2" transform="matrix(0.7071 -0.7071 0.7071 0.7071 -16.0054 219.2159)" class="st14" width="23.4" height="23.4"/>
	</g>
</g>
</svg>
