<?xml version="1.0" encoding="utf-8"?>
<!-- Generator: Adobe Illustrator 22.0.1, SVG Export Plug-In . SVG Version: 6.00 Build 0)  -->
<svg version="1.1" id="Layer_1" xmlns="http://www.w3.org/2000/svg" xmlns:xlink="http://www.w3.org/1999/xlink" x="0px" y="0px"
	 viewBox="0 0 1067 1067" style="enable-background:new 0 0 1067 1067;" xml:space="preserve">
<style type="text/css">
	.st0{fill:#F2F2F2;stroke:#0C1726;stroke-width:50;stroke-miterlimit:10;}
	.st1{fill:#0C1726;}
	.st2{fill:#F2F2F2;}
</style>
<title>Asset 7</title>
<g id="Layer_2_1_">
	<g id="Layer_1-2">
		<circle class="st0" cx="533.5" cy="533.5" r="508.5"/>
		<ellipse class="st1" cx="533.5" cy="452" rx="159" ry="178.5"/>
		<path class="st1" d="M800,970.8l58.3-27.5c5.3-2,6.4-8.4,2.1-11.8L605.6,730.2c-1.4-1.1-3.1-1.7-4.9-1.7H454.4
			c-1.9,0-3.7,0.7-5.1,1.9L208.9,936.1c-4.1,3.5-2.8,9.7,2.3,11.6l47.3,23.4C430.3,1034.2,628.3,1034.1,800,970.8z"/>
		<polygon class="st2" points="581.5,913.8 531.7,1018.5 485.5,913.8 512.3,728.5 552,728.5 		"/>
		<polygon class="st2" points="406.5,725.5 660.5,725.5 531.6,817.5 		"/>
	</g>
</g>
</svg>
