<?xml version="1.0" encoding="utf-8"?>
<!-- Generator: Adobe Illustrator 22.0.1, SVG Export Plug-In . SVG Version: 6.00 Build 0)  -->
<svg version="1.1" id="Layer_1" xmlns="http://www.w3.org/2000/svg" xmlns:xlink="http://www.w3.org/1999/xlink" x="0px" y="0px"
	 viewBox="0 0 4720 4411" style="enable-background:new 0 0 4720 4411;" xml:space="preserve">
<style type="text/css">
	.st0{fill:none;stroke:#3E73B9;stroke-width:176.38;stroke-linecap:round;stroke-linejoin:round;}
	.st1{fill:#3E73B9;}
</style>
<title>Like</title>
<desc>Created with Sketch.</desc>
<g id="Page-5">
	<g id="Like" transform="translate(89.000000, 89.000000)">
		<path id="Shape" class="st0" d="M4063,3739v494H1883l-521-324v324H1L0,1842h1362v238l1028-1072L2609,0c136,83,273,165,409,248
			l166,851l-223,747l1581-2v661h-691 M4420,2505v658h-573 M4232,3163v576h-385"/>
		<path id="Shape_1_" class="st0" d="M1362,2080v1829"/>
		<path id="Shape_2_" class="st1" d="M904,3728c47,0,85,39,85,86s-38,85-85,85s-86-38-86-85S857,3728,904,3728z"/>
	</g>
</g>
</svg>
