<?xml version="1.0" encoding="utf-8"?>
<!-- Generator: Adobe Illustrator 22.0.1, SVG Export Plug-In . SVG Version: 6.00 Build 0)  -->
<svg version="1.1" id="Layer_1" xmlns="http://www.w3.org/2000/svg" xmlns:xlink="http://www.w3.org/1999/xlink" x="0px" y="0px"
	 viewBox="0 0 16 16" style="enable-background:new 0 0 16 16;" xml:space="preserve">
<style type="text/css">
	.st0{fill:#FFFFFF;}
	.st1{fill:none;stroke:#FFFFFF;stroke-width:0.1208;stroke-miterlimit:10;}
	.st2{fill:none;stroke:#FFFFFF;stroke-width:9.881863e-02;stroke-miterlimit:10;}
</style>
<title>Asset 3</title>
<g id="Layer_2_1_">
	<g id="Layer_1-2">
		<path class="st0" d="M15.9,1.3L13.3,4c-0.1-0.1-0.2-0.3-0.4-0.4l2.6-2.4L15.9,1.3z"/>
		<path class="st0" d="M13.3,4L8.8,8.7l-0.6,1.9H7.8L7.2,8.7L2.7,4C2.8,3.9,2.9,3.7,3,3.6L7.8,8l0.4,0L13,3.6
			C13.1,3.7,13.2,3.9,13.3,4z"/>
		<path class="st0" d="M0.4,1.2L3,3.6C2.9,3.7,2.8,3.9,2.7,4L0.1,1.3L0.4,1.2z"/>
		<path class="st1" d="M3,3.6C2.9,3.7,2.8,3.9,2.7,4C1.8,5.2,1.3,6.6,1.3,8.1c0,3.7,3,6.7,6.7,6.7s6.7-3,6.7-6.7
			c0-1.5-0.5-2.9-1.4-4.1c-0.1-0.1-0.2-0.3-0.4-0.4"/>
		<polygon class="st2" points="13.3,4 8.8,8.7 8.2,10.5 7.8,10.5 7.2,8.7 2.7,4 0.1,1.3 0.4,1.2 3,3.6 7.8,8 8.2,8 13,3.6 15.6,1.2 
			15.9,1.3 		"/>
	</g>
</g>
</svg>
