<svg id="2877fe66-42cd-4814-9faf-3a1c0cfd3168" data-name="Layer 1" xmlns="http://www.w3.org/2000/svg" viewBox="0 0 373.35 120">
  <defs>
    <style>
      .b522eee6-d48f-4381-82c7-41f17479b82b {
        fill: #3f73b9;
      }

      .eb23eec7-b183-4aed-a60e-8334fa472f20 {
        fill: #fff;
      }

      .\35 4deb969-cb46-4574-bedc-3000cc15de27 {
        fill: #018e46;
      }

      .a3758af4-55cd-4b26-a041-cd00a61b1707 {
        fill: #fec111;
      }

      .f5099586-ca24-48b4-b79f-99e2cfbad06b {
        fill: #dc3645;
      }
    </style>
  </defs>
  <title>books-inventory</title>
  <rect class="b522eee6-d48f-4381-82c7-41f17479b82b" x="22.15" y="24.64" width="53.83" height="66.15" rx="2.88" ry="2.88"/>
  <path class="eb23eec7-b183-4aed-a60e-8334fa472f20" d="M29.67,33.69H53.79a1.4,1.4,0,0,0,0-2.79H29.67a1.4,1.4,0,0,0,0,2.79Z"/>
  <path class="eb23eec7-b183-4aed-a60e-8334fa472f20" d="M29.67,39.93H57.06a1.4,1.4,0,0,0,0-2.79H29.67a1.4,1.4,0,0,0,0,2.79Z"/>
  <path class="eb23eec7-b183-4aed-a60e-8334fa472f20" d="M30.56,46.17h6.66a1.4,1.4,0,0,0,0-2.79H30.56a1.4,1.4,0,0,0,0,2.79Z"/>
  <path class="54deb969-cb46-4574-bedc-3000cc15de27" d="M22.83,96.15H75.29a1.39,1.39,0,0,0,0-2.78H22.83a1.39,1.39,0,0,0,0,2.78Z"/>
  <rect class="b522eee6-d48f-4381-82c7-41f17479b82b" x="90.95" y="24.64" width="53.83" height="66.15" rx="2.88" ry="2.88"/>
  <path class="eb23eec7-b183-4aed-a60e-8334fa472f20" d="M98.48,33.69h32.85a1.4,1.4,0,0,0,0-2.79H98.48a1.4,1.4,0,0,0,0,2.79Z"/>
  <path class="eb23eec7-b183-4aed-a60e-8334fa472f20" d="M98.48,39.93h20.59a1.4,1.4,0,0,0,0-2.79H98.48a1.4,1.4,0,0,0,0,2.79Z"/>
  <path class="eb23eec7-b183-4aed-a60e-8334fa472f20" d="M99.36,46.17h14.41a1.4,1.4,0,0,0,0-2.79H99.36a1.4,1.4,0,0,0,0,2.79Z"/>
  <path class="a3758af4-55cd-4b26-a041-cd00a61b1707" d="M91.64,96.15h26.23a1.39,1.39,0,0,0,0-2.78H91.64a1.39,1.39,0,0,0,0,2.78Z"/>
  <rect class="b522eee6-d48f-4381-82c7-41f17479b82b" x="159.76" y="24.64" width="53.83" height="66.15" rx="2.88" ry="2.88"/>
  <path class="eb23eec7-b183-4aed-a60e-8334fa472f20" d="M167.28,33.69h27.39a1.4,1.4,0,0,0,0-2.79H167.28a1.4,1.4,0,0,0,0,2.79Z"/>
  <path class="eb23eec7-b183-4aed-a60e-8334fa472f20" d="M167.28,39.93h35a1.4,1.4,0,0,0,0-2.79h-35a1.4,1.4,0,0,0,0,2.79Z"/>
  <path class="eb23eec7-b183-4aed-a60e-8334fa472f20" d="M168.17,46.17H183a1.4,1.4,0,0,0,0-2.79H168.17a1.4,1.4,0,0,0,0,2.79Z"/>
  <path class="54deb969-cb46-4574-bedc-3000cc15de27" d="M160.44,96.15h45.19a1.39,1.39,0,0,0,0-2.78H160.44a1.39,1.39,0,0,0,0,2.78Z"/>
  <rect class="b522eee6-d48f-4381-82c7-41f17479b82b" x="228.56" y="24.64" width="53.83" height="66.15" rx="2.88" ry="2.88"/>
  <path class="eb23eec7-b183-4aed-a60e-8334fa472f20" d="M236.09,33.69h20.68a1.4,1.4,0,0,0,0-2.79H236.09a1.4,1.4,0,0,0,0,2.79Z"/>
  <path class="eb23eec7-b183-4aed-a60e-8334fa472f20" d="M236.09,39.93h8.55a1.4,1.4,0,0,0,0-2.79h-8.55a1.4,1.4,0,0,0,0,2.79Z"/>
  <path class="eb23eec7-b183-4aed-a60e-8334fa472f20" d="M236.09,46.17h16.28a1.4,1.4,0,0,0,0-2.79H236.09a1.4,1.4,0,0,0,0,2.79Z"/>
  <path class="f5099586-ca24-48b4-b79f-99e2cfbad06b" d="M229.25,96.75h6.62a1.39,1.39,0,0,0,0-2.78h-6.62a1.39,1.39,0,0,0,0,2.78Z"/>
  <rect class="b522eee6-d48f-4381-82c7-41f17479b82b" x="297.37" y="24.64" width="53.83" height="66.15" rx="2.88" ry="2.88"/>
  <path class="eb23eec7-b183-4aed-a60e-8334fa472f20" d="M304.89,33.69H315a1.4,1.4,0,0,0,0-2.79H304.89a1.4,1.4,0,0,0,0,2.79Z"/>
  <path class="eb23eec7-b183-4aed-a60e-8334fa472f20" d="M304.89,39.93h27.39a1.4,1.4,0,0,0,0-2.79H304.89a1.4,1.4,0,0,0,0,2.79Z"/>
  <path class="eb23eec7-b183-4aed-a60e-8334fa472f20" d="M305.78,46.17h18.5a1.4,1.4,0,0,0,0-2.79h-18.5a1.4,1.4,0,0,0,0,2.79Z"/>
  <path class="a3758af4-55cd-4b26-a041-cd00a61b1707" d="M297.37,96.75h16.05a1.39,1.39,0,0,0,0-2.78H297.37a1.39,1.39,0,0,0,0,2.78Z"/>
</svg>
