<svg id="b87435ba-9ec8-403d-a919-e16849e47be3" data-name="Layer 1" xmlns="http://www.w3.org/2000/svg" viewBox="0 0 120 120">
  <defs>
    <style>
      .f81c16db-cdee-4c93-bab0-99a9ee395802 {
        fill: #3f73b9;
      }

      .\35 37a6b8f-3359-474d-a949-ab6901601803, .\38 a6e7d9b-e9a1-4c8b-a555-96ba651c981a {
        fill: #fff;
      }

      .\38 a6e7d9b-e9a1-4c8b-a555-96ba651c981a {
        stroke: #3f73b9;
        stroke-miterlimit: 10;
        stroke-width: 5.59px;
      }
    </style>
  </defs>
  <title>delivery</title>
  <path class="f81c16db-cdee-4c93-bab0-99a9ee395802" d="M94.82,79.7h8.52a3.29,3.29,0,0,0,3.07-3.47v-12a3.3,3.3,0,0,0-3.07-3.48H98a3.1,3.1,0,0,1-2.84-2.14l-3.25-8.93a3.11,3.11,0,0,0-2.84-2.15H82.88a3.22,3.22,0,0,0-3,3l-2.78,24.3a3.37,3.37,0,0,0,2.87,3.91l14.71,1Z"/>
  <path class="f81c16db-cdee-4c93-bab0-99a9ee395802" d="M75,79.7H16.14a2.28,2.28,0,0,1-2.53-2.42l5.28-40.81A3.1,3.1,0,0,1,22,34.05H80.87a2.27,2.27,0,0,1,2.52,2.42L78.12,77.28A3.1,3.1,0,0,1,75,79.7Z"/>
  <circle class="8a6e7d9b-e9a1-4c8b-a555-96ba651c981a" cx="33.89" cy="77.49" r="9.26"/>
  <circle class="8a6e7d9b-e9a1-4c8b-a555-96ba651c981a" cx="86.95" cy="78.31" r="9.26"/>
  <path class="537a6b8f-3359-474d-a949-ab6901601803" d="M4.37,52.43h32a1.22,1.22,0,0,0,0-2.44h-32a1.22,1.22,0,0,0,0,2.44Z"/>
  <path class="537a6b8f-3359-474d-a949-ab6901601803" d="M2.53,44.19h32a1.23,1.23,0,0,0,0-2.45h-32a1.23,1.23,0,0,0,0,2.45Z"/>
  <path class="537a6b8f-3359-474d-a949-ab6901601803" d="M1.72,60.09h32a1.22,1.22,0,0,0,0-2.44h-32a1.22,1.22,0,0,0,0,2.44Z"/>
</svg>
