<svg id="5d392bcd-fa32-47a3-acbb-bd8c86fd39ba" data-name="Layer 1" xmlns="http://www.w3.org/2000/svg" viewBox="0 0 120 120">
  <defs>
    <style>
      .aad08501-98e0-4a8a-b76c-ab405e665389 {
        fill: #3f73b9;
      }
    </style>
  </defs>
  <title>line-graph</title>
  <path class="aad08501-98e0-4a8a-b76c-ab405e665389" d="M113.24,107.3H13.29l2.77,2.77V9.09c0-3.56-5.54-3.57-5.54,0v101a2.81,2.81,0,0,0,2.77,2.77h100c3.56,0,3.57-5.54,0-5.54Z"/>
  <path class="aad08501-98e0-4a8a-b76c-ab405e665389" d="M15.86,99,61,57.68c1.39-1.28-.68-3.34-2.06-2.07L13.8,96.88c-1.39,1.27.68,3.33,2.06,2.07Z"/>
  <path class="aad08501-98e0-4a8a-b76c-ab405e665389" d="M81,56.06l35.92-32.84c1.39-1.27-.68-3.34-2.07-2.07L79,54c-1.39,1.27.68,3.33,2.07,2.07Z"/>
  <path class="aad08501-98e0-4a8a-b76c-ab405e665389" d="M60,58.1l20-1.61c1.86-.16,1.87-3.08,0-2.93L60,55.18c-1.86.15-1.88,3.08,0,2.92Z"/>
</svg>
