<svg id="e13ff7e3-ef34-4899-92b5-8733a4f19a13" data-name="Layer 1" xmlns="http://www.w3.org/2000/svg" viewBox="0 0 120 120">
  <defs>
    <style>
      .\37 27b969c-324f-4004-8d3a-0d4c2ec5d3fb {
        fill: #fff;
      }

      .\37 ef09998-2e14-42b0-9711-f5e1d1f790fe {
        fill: #3f73b9;
      }

      .\31 911d9ac-cb9c-49d2-a590-0a618879dc0a {
        fill: #231f20;
      }
    </style>
  </defs>
  <title>pie-chart</title>
  <path class="727b969c-324f-4004-8d3a-0d4c2ec5d3fb" d="M40.61,20.27H68a1.39,1.39,0,0,0,0-2.78H40.61a1.39,1.39,0,0,0,0,2.78Z"/>
  <path class="727b969c-324f-4004-8d3a-0d4c2ec5d3fb" d="M40.61,26.51H68a1.39,1.39,0,0,0,0-2.78H40.61a1.39,1.39,0,0,0,0,2.78Z"/>
  <path class="727b969c-324f-4004-8d3a-0d4c2ec5d3fb" d="M41.5,32.75h6.65a1.39,1.39,0,0,0,0-2.78H41.5a1.39,1.39,0,0,0,0,2.78Z"/>
  <circle class="7ef09998-2e14-42b0-9711-f5e1d1f790fe" cx="60" cy="60" r="46.86"/>
  <circle class="727b969c-324f-4004-8d3a-0d4c2ec5d3fb" cx="60" cy="60" r="31.86"/>
  <path class="727b969c-324f-4004-8d3a-0d4c2ec5d3fb" d="M13.14,61.25H60a1.25,1.25,0,0,0,0-2.5H13.14a1.25,1.25,0,0,0,0,2.5Z"/>
  <g>
    <line class="1911d9ac-cb9c-49d2-a590-0a618879dc0a" x1="60" y1="60" x2="90.63" y2="95.46"/>
    <path class="727b969c-324f-4004-8d3a-0d4c2ec5d3fb" d="M59.12,60.88,89.75,96.34c1,1.22,2.81-.56,1.77-1.77L60.88,59.12c-1.05-1.22-2.81.55-1.76,1.76Z"/>
  </g>
  <g>
    <line class="1911d9ac-cb9c-49d2-a590-0a618879dc0a" x1="88.43" y1="22.75" x2="60" y2="60"/>
    <path class="727b969c-324f-4004-8d3a-0d4c2ec5d3fb" d="M87.35,22.12,58.92,59.37c-1,1.28,1.2,2.52,2.16,1.26L89.51,23.38c1-1.27-1.2-2.52-2.16-1.26Z"/>
  </g>
</svg>
