<svg id="36a082a4-07f1-4567-ade8-39fe4a432189" data-name="Layer 1" xmlns="http://www.w3.org/2000/svg" viewBox="0 0 120 344.06">
  <defs>
    <style>
      .\36 7e377f4-eda0-4c93-a3e3-d63dc969e7a7 {
        fill: #3f73b9;
      }

      .\34 c9a99c7-a553-4284-a189-181e93460325 {
        fill: #fff;
      }

      .\34 d1be98a-0532-4a47-9316-279c4ea21837 {
        fill: none;
        stroke: #fff;
        stroke-miterlimit: 10;
        stroke-width: 0.75px;
      }

      .d4f5ab70-a36d-40af-b88b-e4421cc0e1e1 {
        fill: #d1d3d4;
      }

      .aa08a5ab-ca2f-423c-9eae-05a7dd27ad4b {
        fill: #018e46;
      }

      .\32 2c1fb7e-eef7-46f2-97f5-15c296f16101 {
        fill: #414042;
      }

      .\37 532b4eb-bf43-4f88-91ef-2bb97a05c14a {
        fill: #bcbec0;
      }
    </style>
  </defs>
  <title>posts-with-book</title>
  <g>
    <rect class="67e377f4-eda0-4c93-a3e3-d63dc969e7a7" x="10.79" y="115.54" width="97.55" height="66.7" rx="3.89" ry="3.89"/>
    <circle class="4c9a99c7-a553-4284-a189-181e93460325" cx="25.3" cy="128.78" r="9.3"/>
    <path class="4c9a99c7-a553-4284-a189-181e93460325" d="M41.1,125.07H65.23a1.88,1.88,0,0,0,0-3.75H41.1a1.88,1.88,0,0,0,0,3.75Z"/>
    <path class="4c9a99c7-a553-4284-a189-181e93460325" d="M41.1,131.31H53.16a1.88,1.88,0,0,0,0-3.75H41.1a1.88,1.88,0,0,0,0,3.75Z"/>
    <path class="4c9a99c7-a553-4284-a189-181e93460325" d="M52.65,178.23H64.71a1.88,1.88,0,0,0,0-3.75H52.65a1.88,1.88,0,0,0,0,3.75Z"/>
    <line class="4d1be98a-0532-4a47-9316-279c4ea21837" x1="10.79" y1="169.62" x2="108.33" y2="169.62"/>
    <line class="4d1be98a-0532-4a47-9316-279c4ea21837" x1="10.79" y1="143.29" x2="108.33" y2="143.29"/>
    <path class="4c9a99c7-a553-4284-a189-181e93460325" d="M18,152.08h83.14a1.25,1.25,0,0,0,0-2.5H18a1.25,1.25,0,0,0,0,2.5Z"/>
    <path class="4c9a99c7-a553-4284-a189-181e93460325" d="M18,157.37h83.14a1.25,1.25,0,0,0,0-2.5H18a1.25,1.25,0,0,0,0,2.5Z"/>
    <path class="4c9a99c7-a553-4284-a189-181e93460325" d="M18,162.66H61.82a1.25,1.25,0,0,0,0-2.5H18a1.25,1.25,0,0,0,0,2.5Z"/>
  </g>
  <g>
    <rect class="d4f5ab70-a36d-40af-b88b-e4421cc0e1e1" x="10.79" y="191.14" width="97.55" height="66.7" rx="3.89" ry="3.89"/>
    <circle class="4c9a99c7-a553-4284-a189-181e93460325" cx="25.3" cy="204.38" r="9.3"/>
    <path class="4c9a99c7-a553-4284-a189-181e93460325" d="M41.1,200.67H65.23a1.88,1.88,0,0,0,0-3.75H41.1a1.88,1.88,0,0,0,0,3.75Z"/>
    <path class="4c9a99c7-a553-4284-a189-181e93460325" d="M41.1,206.91H53.16a1.88,1.88,0,0,0,0-3.75H41.1a1.88,1.88,0,0,0,0,3.75Z"/>
    <path class="4c9a99c7-a553-4284-a189-181e93460325" d="M52.65,253.83H64.71a1.88,1.88,0,0,0,0-3.75H52.65a1.88,1.88,0,0,0,0,3.75Z"/>
    <line class="4d1be98a-0532-4a47-9316-279c4ea21837" x1="10.79" y1="245.21" x2="108.33" y2="245.21"/>
    <line class="4d1be98a-0532-4a47-9316-279c4ea21837" x1="10.79" y1="218.89" x2="108.33" y2="218.89"/>
    <path class="4c9a99c7-a553-4284-a189-181e93460325" d="M18,227.67H92.73a1.25,1.25,0,0,0,0-2.5H18a1.25,1.25,0,0,0,0,2.5Z"/>
    <path class="4c9a99c7-a553-4284-a189-181e93460325" d="M18,233h83.14a1.25,1.25,0,0,0,0-2.5H18a1.25,1.25,0,0,0,0,2.5Z"/>
    <path class="4c9a99c7-a553-4284-a189-181e93460325" d="M18,238.26H71.24a1.25,1.25,0,0,0,0-2.5H18a1.25,1.25,0,0,0,0,2.5Z"/>
  </g>
  <g>
    <rect class="d4f5ab70-a36d-40af-b88b-e4421cc0e1e1" x="10.79" y="266.74" width="97.55" height="66.7" rx="3.89" ry="3.89"/>
    <circle class="4c9a99c7-a553-4284-a189-181e93460325" cx="25.3" cy="279.97" r="9.3"/>
    <path class="4c9a99c7-a553-4284-a189-181e93460325" d="M41.1,276.27H65.23a1.88,1.88,0,0,0,0-3.75H41.1a1.88,1.88,0,0,0,0,3.75Z"/>
    <path class="4c9a99c7-a553-4284-a189-181e93460325" d="M41.1,282.51H53.16a1.88,1.88,0,0,0,0-3.75H41.1a1.88,1.88,0,0,0,0,3.75Z"/>
    <path class="4c9a99c7-a553-4284-a189-181e93460325" d="M52.65,329.43H64.71a1.88,1.88,0,0,0,0-3.75H52.65a1.88,1.88,0,0,0,0,3.75Z"/>
    <line class="4d1be98a-0532-4a47-9316-279c4ea21837" x1="10.79" y1="320.81" x2="108.33" y2="320.81"/>
    <line class="4d1be98a-0532-4a47-9316-279c4ea21837" x1="10.79" y1="294.49" x2="108.33" y2="294.49"/>
    <path class="4c9a99c7-a553-4284-a189-181e93460325" d="M18,303.27h83.14a1.25,1.25,0,0,0,0-2.5H18a1.25,1.25,0,0,0,0,2.5Z"/>
    <path class="4c9a99c7-a553-4284-a189-181e93460325" d="M18,308.56H89.76a1.25,1.25,0,0,0,0-2.5H18a1.25,1.25,0,0,0,0,2.5Z"/>
    <path class="4c9a99c7-a553-4284-a189-181e93460325" d="M18,313.85h58.8a1.25,1.25,0,0,0,0-2.5H18a1.25,1.25,0,0,0,0,2.5Z"/>
  </g>
  <rect class="aa08a5ab-ca2f-423c-9eae-05a7dd27ad4b" x="31.76" y="9.55" width="53.83" height="66.15" rx="2.88" ry="2.88"/>
  <path class="4c9a99c7-a553-4284-a189-181e93460325" d="M39.29,18.6H66.68a1.4,1.4,0,0,0,0-2.79H39.29a1.4,1.4,0,0,0,0,2.79Z"/>
  <path class="4c9a99c7-a553-4284-a189-181e93460325" d="M39.29,24.84H66.68a1.4,1.4,0,0,0,0-2.79H39.29a1.4,1.4,0,0,0,0,2.79Z"/>
  <path class="4c9a99c7-a553-4284-a189-181e93460325" d="M40.17,31.08h6.66a1.4,1.4,0,0,0,0-2.79H40.17a1.4,1.4,0,0,0,0,2.79Z"/>
  <path class="22c1fb7e-eef7-46f2-97f5-15c296f16101" d="M35.64,84.86H81.71a1.81,1.81,0,0,0,0-3.61H35.64a1.81,1.81,0,0,0,0,3.61Z"/>
  <path class="22c1fb7e-eef7-46f2-97f5-15c296f16101" d="M38.76,92.37H78.59a1.81,1.81,0,0,0,0-3.61H38.76a1.81,1.81,0,0,0,0,3.61Z"/>
  <path class="7532b4eb-bf43-4f88-91ef-2bb97a05c14a" d="M43.36,102.88H74a1.81,1.81,0,0,0,0-3.62H43.36a1.81,1.81,0,0,0,0,3.62Z"/>
</svg>
