<svg id="64bb0091-2da9-4141-9559-337e21f77043" data-name="Layer 1" xmlns="http://www.w3.org/2000/svg" viewBox="0 0 120 236.82">
  <defs>
    <style>
      .\30 8039b50-a2fa-4aa3-90b6-c621da54bb74 {
        fill: #3f73b9;
      }

      .f4dff351-8962-487c-bb99-c1367d64ce49 {
        fill: #fff;
      }

      .\36 0203e6e-565c-495d-9b55-7f1fa50807db {
        fill: none;
        stroke: #fff;
        stroke-miterlimit: 10;
        stroke-width: 0.75px;
      }

      .\36 1e3658a-e51b-42a4-8596-7d2d9d319f20 {
        fill: #d1d3d4;
      }
    </style>
  </defs>
  <title>posts</title>
  <g>
    <rect class="08039b50-a2fa-4aa3-90b6-c621da54bb74" x="10.79" y="9.46" width="97.55" height="66.7" rx="3.89" ry="3.89"/>
    <circle class="f4dff351-8962-487c-bb99-c1367d64ce49" cx="25.3" cy="22.69" r="9.3"/>
    <path class="f4dff351-8962-487c-bb99-c1367d64ce49" d="M41.1,19H65.23a1.88,1.88,0,0,0,0-3.75H41.1a1.88,1.88,0,0,0,0,3.75Z"/>
    <path class="f4dff351-8962-487c-bb99-c1367d64ce49" d="M41.1,25.23H53.16a1.88,1.88,0,0,0,0-3.75H41.1a1.88,1.88,0,0,0,0,3.75Z"/>
    <path class="f4dff351-8962-487c-bb99-c1367d64ce49" d="M52.65,72.15H64.71a1.88,1.88,0,0,0,0-3.75H52.65a1.88,1.88,0,0,0,0,3.75Z"/>
    <line class="60203e6e-565c-495d-9b55-7f1fa50807db" x1="10.79" y1="63.53" x2="108.33" y2="63.53"/>
    <line class="60203e6e-565c-495d-9b55-7f1fa50807db" x1="10.79" y1="37.2" x2="108.33" y2="37.2"/>
    <path class="f4dff351-8962-487c-bb99-c1367d64ce49" d="M18,46h83.14a1.25,1.25,0,0,0,0-2.5H18A1.25,1.25,0,0,0,18,46Z"/>
    <path class="f4dff351-8962-487c-bb99-c1367d64ce49" d="M18,51.28h83.14a1.25,1.25,0,0,0,0-2.5H18a1.25,1.25,0,0,0,0,2.5Z"/>
    <path class="f4dff351-8962-487c-bb99-c1367d64ce49" d="M18,56.57H61.82a1.25,1.25,0,0,0,0-2.5H18a1.25,1.25,0,0,0,0,2.5Z"/>
  </g>
  <g>
    <rect class="61e3658a-e51b-42a4-8596-7d2d9d319f20" x="10.79" y="85.06" width="97.55" height="66.7" rx="3.89" ry="3.89"/>
    <circle class="f4dff351-8962-487c-bb99-c1367d64ce49" cx="25.3" cy="98.29" r="9.3"/>
    <path class="f4dff351-8962-487c-bb99-c1367d64ce49" d="M41.1,94.59H65.23a1.88,1.88,0,0,0,0-3.75H41.1a1.88,1.88,0,0,0,0,3.75Z"/>
    <path class="f4dff351-8962-487c-bb99-c1367d64ce49" d="M41.1,100.83H53.16a1.88,1.88,0,0,0,0-3.75H41.1a1.88,1.88,0,0,0,0,3.75Z"/>
    <path class="f4dff351-8962-487c-bb99-c1367d64ce49" d="M52.65,147.75H64.71a1.88,1.88,0,0,0,0-3.75H52.65a1.88,1.88,0,0,0,0,3.75Z"/>
    <line class="60203e6e-565c-495d-9b55-7f1fa50807db" x1="10.79" y1="139.13" x2="108.33" y2="139.13"/>
    <line class="60203e6e-565c-495d-9b55-7f1fa50807db" x1="10.79" y1="112.8" x2="108.33" y2="112.8"/>
    <path class="f4dff351-8962-487c-bb99-c1367d64ce49" d="M18,121.59H92.73a1.25,1.25,0,0,0,0-2.5H18a1.25,1.25,0,0,0,0,2.5Z"/>
    <path class="f4dff351-8962-487c-bb99-c1367d64ce49" d="M18,126.88h83.14a1.25,1.25,0,0,0,0-2.5H18a1.25,1.25,0,0,0,0,2.5Z"/>
    <path class="f4dff351-8962-487c-bb99-c1367d64ce49" d="M18,132.17H71.24a1.25,1.25,0,0,0,0-2.5H18a1.25,1.25,0,0,0,0,2.5Z"/>
  </g>
  <g>
    <rect class="61e3658a-e51b-42a4-8596-7d2d9d319f20" x="10.79" y="160.66" width="97.55" height="66.7" rx="3.89" ry="3.89"/>
    <circle class="f4dff351-8962-487c-bb99-c1367d64ce49" cx="25.3" cy="173.89" r="9.3"/>
    <path class="f4dff351-8962-487c-bb99-c1367d64ce49" d="M41.1,170.19H65.23a1.88,1.88,0,0,0,0-3.75H41.1a1.88,1.88,0,0,0,0,3.75Z"/>
    <path class="f4dff351-8962-487c-bb99-c1367d64ce49" d="M41.1,176.42H53.16a1.88,1.88,0,0,0,0-3.75H41.1a1.88,1.88,0,0,0,0,3.75Z"/>
    <path class="f4dff351-8962-487c-bb99-c1367d64ce49" d="M52.65,223.35H64.71a1.88,1.88,0,0,0,0-3.75H52.65a1.88,1.88,0,0,0,0,3.75Z"/>
    <line class="60203e6e-565c-495d-9b55-7f1fa50807db" x1="10.79" y1="214.73" x2="108.33" y2="214.73"/>
    <line class="60203e6e-565c-495d-9b55-7f1fa50807db" x1="10.79" y1="188.4" x2="108.33" y2="188.4"/>
    <path class="f4dff351-8962-487c-bb99-c1367d64ce49" d="M18,197.19h83.14a1.25,1.25,0,0,0,0-2.5H18a1.25,1.25,0,0,0,0,2.5Z"/>
    <path class="f4dff351-8962-487c-bb99-c1367d64ce49" d="M18,202.48H89.76a1.25,1.25,0,0,0,0-2.5H18a1.25,1.25,0,0,0,0,2.5Z"/>
    <path class="f4dff351-8962-487c-bb99-c1367d64ce49" d="M18,207.77h58.8a1.25,1.25,0,0,0,0-2.5H18a1.25,1.25,0,0,0,0,2.5Z"/>
  </g>
</svg>
