<svg id="46d13ff0-c718-47fc-9e41-96bb90e1b27f" data-name="Layer 1" xmlns="http://www.w3.org/2000/svg" viewBox="0 0 16 16"><defs><style>.ee99efcd-18cc-41ed-9657-da6051b2cc5c{fill:#000;}</style></defs><title>mask</title><path class="ee99efcd-18cc-41ed-9657-da6051b2cc5c" d="M8.22,10.39h-.4v0L7.2,8.64,3.13,4.41a6.12,6.12,0,1,0,11,3.7,6.05,6.05,0,0,0-1.25-3.7l-4,4.23Z" transform="translate(0)"/><path class="ee99efcd-18cc-41ed-9657-da6051b2cc5c" d="M14.13,0H1.87A1.87,1.87,0,0,0,0,1.87V14.13A1.87,1.87,0,0,0,1.87,16H14.13A1.87,1.87,0,0,0,16,14.13V1.87A1.87,1.87,0,0,0,14.13,0Zm.1,8.11a6.23,6.23,0,0,1-12.46,0A6.16,6.16,0,0,1,3.05,4.33L.68,1.86,1,1.66l0,0L7.82,7.94h.36l6.75-6.28.4.18L12.94,4.33A6.23,6.23,0,0,1,14.23,8.11Z" transform="translate(0)"/></svg>